# xmcd CD database file
#
# Track frame offsets:
#	150
#	25620
#	43615
#	68382
#	90435
#	113655
#	145327
#	169745
#
# Disc length: 2565 seconds
#
# Revision: 0
# Processed by: cddbd v1.5.2PL0 Copyright (c) Steve Scherf et al.
# Submitted via: CDex 1.51
#
DISCID=580a0308
DTITLE=Snooky Young and Marshal Royal - Snooky and Marshal's Album
DYEAR=1900
DGENRE=Jazz
TTITLE0=I Let a Song Go Out Of My Heart
TTITLE1=Mean Dog Blues
TTITLE2=Cederay
TTITLE3=Limehouse Blues
TTITLE4=Cherry
TTITLE5=You've Changed/I'm Confessin'/Come Sunday
TTITLE6=Catch a Star
TTITLE7=Should I?
EXTD=
EXTT0=
EXTT1=
EXTT2=
EXTT3=
EXTT4=
EXTT5=
EXTT6=
EXTT7=
PLAYORDER=
